<?xml version="1.0" encoding="utf-8"?>
<!-- Generator: Adobe Illustrator 25.4.1, SVG Export Plug-In . SVG Version: 6.00 Build 0)  -->
<svg version="1.1" id="레이어_1" xmlns="http://www.w3.org/2000/svg" xmlns:xlink="http://www.w3.org/1999/xlink" x="0px"
	 y="0px" viewBox="0 0 425.2 91.6" style="enable-background:new 0 0 425.2 91.6;" xml:space="preserve">
<style type="text/css">
	.st0{fill:#FFFFFF;}
</style>
<g>
	<polygon class="st0" points="32.1,17.3 22.7,54.3 13.4,17.3 0.1,17.3 0,17.3 0.1,17.5 0.1,89.2 12.8,89.2 12.8,67.6 18.2,89.2 
		27.2,89.2 32.7,67.6 32.7,89.2 45.4,89.2 45.4,17.5 45.4,17.3 45.4,17.3 	"/>
	<g>
		<path class="st0" d="M215.4,21.1l-2.4-0.7l0.8-2.9c0.3-0.9-0.3-1.6-1.2-2L179,3.1l-8.2-3c-0.9-0.3-1.8,0.2-2,1.1l-1.5,5.6l0,0
			l-4-1.2c-0.9-0.3-1.8,0.2-2.2,1l-2.8,6.2l57.3,17.1l1.1-6.7C216.9,22.3,216.3,21.4,215.4,21.1z"/>
		<polygon class="st0" points="188,46 177.6,21.7 161,16.7 166.5,58.4 176.5,58.8 175.6,41.2 182.9,58.8 193,58.8 200.4,41.4 
			199.2,58.8 208.9,58.3 212.6,32.2 196.1,27.2 		"/>
		<path class="st0" d="M177.6,77.6c2.2,0.4,3.8,0.4,3.8,0.4l0.1,3.8c-1.9-0.1-4.7-0.7-5.7-1c-1.1-0.3-1.3-1.4-1.3-1.4l-1-11.2
			c0,0,0-0.7,1.3-0.5c5.2,0.7,12.3,0.5,12.3,0.5v-6.7c-3.9-0.1-17-1-17-1c-4-0.2-3.6,3-3.6,3s1.8,13.3,2.3,17c0.5,3.7,1.8,5,3.1,6.3
			c1.3,1.3,5.6,2.9,8.5,3.3c2.9,0.4,6.9,0.4,6.9,0.4V72.2c-5.8,0-10.2-0.5-10.2-0.5L177.6,77.6z"/>
		<path class="st0" d="M189.2,66.4c0,3.3-0.2,17.7-0.2,17.7s-0.5,6.3,4.2,6c4.7-0.3,8.9-2.1,12.1-4.5l0.8-7.5c0,0-3.6,2.4-7.5,3
			c0,0-1.1,0.2-1.5,0.2c-0.5,0-0.7-0.3-0.7-1c0-0.8,0.6-11.4,0.6-11.4s0-0.9,1.3-1.1c1.3-0.1,7.4-0.8,9.4-1.7l0.9-5.6
			c0,0-11.6,0.9-14.3,0.9C191.2,61.7,189.2,63.1,189.2,66.4z"/>
	</g>
	<polygon class="st0" points="81.3,89.2 81.3,75.4 65.7,75.4 65.7,60.2 79.1,60.2 79.1,46.4 65.7,46.4 65.7,31.2 81.3,31.2 
		81.3,17.3 53,17.3 53,89.2 	"/>
	<polygon class="st0" points="391.1,89.7 391.1,75.9 375.3,75.9 375.3,60.7 388.9,60.7 388.9,46.9 375.3,46.9 375.3,31.7 
		391.1,31.7 391.1,17.9 362.3,17.9 362.3,89.7 	"/>
	<polygon class="st0" points="312.2,89.7 312.2,60.7 325.8,60.7 325.8,46.9 312.2,46.9 312.2,31.7 328,31.7 328,17.9 299.2,17.9 
		299.2,89.7 	"/>
	<polygon class="st0" points="343.7,89.7 343.7,60.7 357.3,60.7 357.3,46.9 343.7,46.9 343.7,31.7 359.6,31.7 359.6,17.9 
		330.8,17.9 330.8,89.7 	"/>
	<polygon class="st0" points="425.2,89.7 425.2,75.9 409.3,75.9 409.3,60.7 423,60.7 423,46.9 409.3,46.9 409.3,31.7 425.2,31.7 
		425.2,17.9 396.4,17.9 396.4,89.7 	"/>
	<path class="st0" d="M104.8,42.3h12.6c0,0,0,0,0,0v-12c0-8.5-3.1-15.3-15.2-15.3S87,21.8,87,30.2v46c0,8.5,3.1,15.3,15.2,15.3
		s15.2-6.8,15.2-15.3V46.4c0,0,0,0,0,0h-16.3c0,0,0,0,0,0v13.8c0,0,0,0,0,0h3.6c0,0,0,0,0,0v14.2c0,1.7-1,3.2-2.3,3.4
		c-1.5,0.2-2.7-1.3-2.7-3.2V32.1c0-1.7,1-3.2,2.3-3.4c1.5-0.2,2.7,1.3,2.7,3.2L104.8,42.3C104.7,42.3,104.8,42.3,104.8,42.3z"/>
	<path class="st0" d="M242,63.5C242,63.5,242,63.5,242,63.5l0,10.4c0,1.7-1,3.2-2.4,3.3c-1.5,0.2-2.8-1.3-2.8-3.1V32.4
		c0-1.7,1-3.2,2.4-3.3c1.5-0.2,2.8,1.3,2.8,3.1v10.7c0,0,0,0,0,0h13.2c0,0,0,0,0,0V30.5c0-8.3-3.3-15-15.9-15s-15.9,6.7-15.9,15
		v45.2c0,8.3,3.3,15,15.9,15s15.9-6.7,15.9-15V63.5c0,0,0,0,0,0H242z"/>
	<path class="st0" d="M292.1,30.5c0-8.3-3.3-15-15.9-15c-12.6,0-15.9,6.7-15.9,15v45.2c0,8.3,3.3,15,15.9,15
		c12.6,0,15.9-6.7,15.9-15V30.5z M278.8,73.9c0,1.7-1,3.2-2.4,3.3c-1.5,0.2-2.8-1.3-2.8-3.1V32.4c0-1.7,1-3.2,2.4-3.3
		c1.5-0.2,2.8,1.3,2.8,3.1V73.9z"/>
	<path class="st0" d="M130.9,17.3l-10.1,71.9h12.7l1.5-14h8.4l1.5,14h12.7l-10.1-71.9H130.9z M136.3,62.8l2.9-28.2l2.9,28.2H136.3z"
		/>
</g>
</svg>
