<svg width="230" height="56" viewBox="0 0 115 28" fill="none" xmlns="http://www.w3.org/2000/svg">
              <path d="M20.9557 8.41167C20.9557 10.7336 19.7844 12.8349 17.8894 14.357C15.9944 15.879 13.3709 16.8233 10.4808 16.8233C7.59065 16.8233 4.97192 15.8711 3.0785 14.3554C1.18508 12.8397 0.00585938 10.732 0.00585938 8.41167C0.00585938 6.09132 1.18349 3.98523 3.0785 2.46319C4.97351 0.941155 7.58906 0 10.4808 0C13.3725 0 15.9896 0.941155 17.883 2.46319C19.7765 3.98523 20.9557 6.08656 20.9557 8.41167Z" fill="#fff"/>
              <path d="M0.00585628 8.41168C0.00585628 8.41168 -0.598832 15.7743 10.4808 26C21.5588 15.7743 20.9557 8.41168 20.9557 8.41168" fill="#fff"/>
              <path d="M98.8033 16.8233C98.8033 14.6664 98.0097 12.6873 96.5702 11.2509C95.1307 9.81461 93.1437 9.02899 90.982 9.02899C88.8204 9.02899 86.8349 9.82255 85.3922 11.2509C83.9496 12.6793 83.1592 14.6585 83.1592 16.8233C83.1592 18.9881 83.9527 20.9593 85.3922 22.3956C87.0206 24.0208 89.36 24.6779 91.6137 24.6318C93.7071 24.589 95.8243 23.8938 97.4606 22.5686L94.9339 20.3308C93.5785 21.4275 91.4185 21.6211 89.7996 21.0704C88.4284 20.6038 87.2841 19.5229 86.9428 18.0787H98.7081C98.7723 17.6585 98.8042 17.234 98.8033 16.809M86.9444 15.4726C87.1034 14.8188 87.4156 14.2122 87.8554 13.703C88.2372 13.2446 88.7151 12.8758 89.2553 12.6227C89.7955 12.3695 90.3847 12.2383 90.9812 12.2383C91.5778 12.2383 92.167 12.3695 92.7072 12.6227C93.2474 12.8758 93.7253 13.2446 94.107 13.703C94.5462 14.2127 94.8584 14.8191 95.0181 15.4726H86.9444Z" fill="#fff"/>
              <path d="M54.769 8.86371C52.5121 8.86371 50.441 9.67155 48.9396 11.1364C48.1898 11.8794 47.5975 12.7659 47.1983 13.743C46.7991 14.7201 46.601 15.7677 46.616 16.8231C46.6021 17.8769 46.8007 18.9227 47.1999 19.8981C47.5991 20.8735 48.1908 21.7585 48.9396 22.5001C50.441 23.9666 52.5121 24.7745 54.769 24.7745C57.0259 24.7745 59.097 23.9666 60.5984 22.5001C61.3479 21.7589 61.9401 20.874 62.3396 19.8986C62.7391 18.9231 62.9377 17.8771 62.9236 16.8231C62.9376 15.7688 62.7389 14.7226 62.3394 13.7469C61.9399 12.7712 61.3478 11.8861 60.5984 11.1444C59.097 9.67948 57.0275 8.87164 54.769 8.87164M57.8036 19.9005C56.9929 20.6942 55.9035 21.1387 54.769 21.1387C53.6345 21.1387 52.5451 20.6942 51.7345 19.9005C50.9536 19.066 50.5192 17.9659 50.5192 16.8231C50.5192 15.6802 50.9536 14.5801 51.7345 13.7457C52.5448 12.952 53.6339 12.5076 54.7682 12.5076C55.9025 12.5076 56.9916 12.952 57.802 13.7457C58.5821 14.5805 59.016 15.6805 59.016 16.8231C59.016 17.9657 58.5821 19.0656 57.802 19.9005" fill="#fff"/>
              <path d="M114.952 24.3684L109.032 16.4471L114.398 9.26544H109.819L106.744 13.3824L103.666 9.26544H98.6684L104.244 16.728L98.535 24.3684H103.114L106.534 19.7927L109.953 24.3684" fill="#fff"/>
              <path d="M47.4636 4.09161H41.9278L32.7638 13.4619V4.09161H28.5627V24.3669H32.7638V14.192L41.8722 24.3669H47.7049L38.1346 13.6635" fill="#fff"/>
              <path d="M76.8298 4.0915V10.3939C76.3646 10.0735 75.8685 9.80018 75.3491 9.57814C74.4426 9.21927 73.4782 9.02939 72.5034 9.01789C70.1767 9.01789 68.2658 9.7305 66.8263 11.1399C66.078 11.8813 65.4867 12.7657 65.0875 13.7405C64.6883 14.7153 64.4895 15.7605 64.5028 16.8138C64.4889 17.8675 64.6871 18.9134 65.0858 19.8889C65.4844 20.8645 66.0752 21.7499 66.8231 22.4924C68.2674 23.9002 70.1767 24.6144 72.5002 24.6144C73.8166 24.5948 75.1087 24.2572 76.2664 23.6304L76.8266 23.3352V24.3668H81.0277V2.48694M76.7965 16.8233V19.2278C76.5976 19.534 76.3566 19.8107 76.0807 20.0499C75.1709 20.832 73.989 21.2233 72.7922 21.1386C71.5574 21.0799 70.5163 20.653 69.7767 19.9023C68.9799 19.0772 68.5423 17.9702 68.5594 16.8233C68.5434 15.678 68.981 14.5729 69.7767 13.7491C70.5163 12.9968 71.5574 12.5698 72.7922 12.5127C73.989 12.428 75.1709 12.8193 76.0807 13.6015C76.3567 13.84 76.5976 14.1162 76.7965 14.422V16.8233Z" fill="#fff"/>
            </svg>